<svg xmlns="http://www.w3.org/2000/svg" viewBox="0 0 64 64">
  <rect width="64" height="64" rx="14" fill="#0b1c2a" />
  <circle cx="32" cy="24" r="10" fill="#ffd89a" />
  <path
    d="M17 28c0-3.314 2.686-6 6-6h18c3.314 0 6 2.686 6 6v18c0 1.657-1.343 3-3 3H20c-1.657 0-3-1.343-3-3V28Z"
    fill="#c86472"
  />
  <path
    d="M32 38c-5.5-4.125-9-7.211-9-11.25 0-2.478 1.872-4.5 4.25-4.5 1.56 0 3.06.822 4.06 2.14A5.03 5.03 0 0 1 35.37 22c2.38 0 4.25 2.022 4.25 4.5 0 4.039-3.5 7.125-7.62 11.5Z"
    fill="#fff3df"
  />
</svg>
